<?xml version="1.0" encoding="UTF-8" standalone="no"?>
<!-- Created with Inkscape (http://www.inkscape.org/) -->

<svg
   xmlns:dc="http://purl.org/dc/elements/1.1/"
   xmlns:cc="http://creativecommons.org/ns#"
   xmlns:rdf="http://www.w3.org/1999/02/22-rdf-syntax-ns#"
   xmlns:svg="http://www.w3.org/2000/svg"
   xmlns="http://www.w3.org/2000/svg"
   xmlns:sodipodi="http://sodipodi.sourceforge.net/DTD/sodipodi-0.dtd"
   xmlns:inkscape="http://www.inkscape.org/namespaces/inkscape"
   width="1600"
   height="1200"
   id="svg3336"
   version="1.1"
   inkscape:version="0.91 r13725"
   viewBox="0 0 1600 1200"
   sodipodi:docname="new logo.svg">
  <defs
     id="defs3338" />
  <sodipodi:namedview
     id="base"
     pagecolor="#ffffff"
     bordercolor="#666666"
     borderopacity="1.0"
     inkscape:pageopacity="0.0"
     inkscape:pageshadow="2"
     inkscape:zoom="0.6"
     inkscape:cx="1115.7562"
     inkscape:cy="511.84222"
     inkscape:current-layer="layer1"
     inkscape:document-units="px"
     showgrid="false"
     inkscape:window-width="1920"
     inkscape:window-height="1001"
     inkscape:window-x="-9"
     inkscape:window-y="-9"
     inkscape:window-maximized="1" />
  <metadata
     id="metadata3341">
    <rdf:RDF>
      <cc:Work
         rdf:about="">
        <dc:format>image/svg+xml</dc:format>
        <dc:type
           rdf:resource="http://purl.org/dc/dcmitype/StillImage" />
        <dc:title />
      </cc:Work>
    </rdf:RDF>
  </metadata>
  <g
     id="layer1"
     inkscape:label="Layer 1"
     inkscape:groupmode="layer">
    <rect
       style="fill:#d45500"
       id="rect3344"
       width="1620"
       height="1210"
       x="-3.3333333"
       y="-3.333334" />
    <text
       xml:space="preserve"
       style="font-style:normal;font-weight:normal;font-size:84.30575562px;line-height:125%;font-family:sans-serif;letter-spacing:0px;word-spacing:0px;fill:#ffffff;fill-opacity:1;stroke:none;stroke-width:1px;stroke-linecap:butt;stroke-linejoin:miter;stroke-opacity:1"
       x="23.400375"
       y="687.99707"
       id="text4193"
       sodipodi:linespacing="125%"
       transform="scale(0.81460965,1.2275818)"><tspan
         sodipodi:role="line"
         id="tspan4195"
         x="23.400375"
         y="687.99707"
         style="font-style:normal;font-variant:normal;font-weight:bold;font-stretch:normal;font-family:sans-serif;-inkscape-font-specification:'sans-serif Bold'">Student Project </tspan></text>
    <text
       xml:space="preserve"
       style="font-style:normal;font-weight:normal;font-size:79.05256653px;line-height:125%;font-family:sans-serif;letter-spacing:0px;word-spacing:0px;fill:#ffffff;fill-opacity:1;stroke:none;stroke-width:1px;stroke-linecap:butt;stroke-linejoin:miter;stroke-opacity:1"
       x="1202.4458"
       y="641.62488"
       id="text4197"
       sodipodi:linespacing="125%"
       transform="scale(0.75769961,1.3197842)"><tspan
         sodipodi:role="line"
         id="tspan4199"
         x="1202.4458"
         y="641.62488"
         style="font-style:normal;font-variant:normal;font-weight:bold;font-stretch:normal;font-family:sans-serif;-inkscape-font-specification:'sans-serif Bold'">Research Committee</tspan></text>
    <path
       style="fill:#ffffff;fill-opacity:1;fill-rule:nonzero;stroke:#000080;stroke-width:0;stroke-miterlimit:4;stroke-dasharray:none;stroke-opacity:1"
       d="m 731.95276,697.64287 133.04739,-0.0786 -66.65908,-215.41459 c -0.73037,0.77978 -17.94169,56.16777 -38.24738,123.08444 -20.30568,66.91667 -38.06888,125.22917 -39.47376,129.58333 l -2.55434,7.91667 -39.86605,0 c -21.92633,0 -39.86606,-0.39482 -39.86606,-0.87735 0,-0.83872 71.27718,-217.98294 101.05862,-307.87265 l 14.21875,-42.91667 46.52798,0 c 25.5904,0 46.52798,0.39199 46.52798,0.87109 0,0.4791 25.83892,79.39018 57.41982,175.35796 31.5809,95.96777 57.13845,174.76824 56.79455,175.11215 l -122.5477,0.85792 58.15148,178.53827 z"
       id="path4201"
       inkscape:connector-curvature="0"
       sodipodi:nodetypes="cccsscssscssscccc" />
    <path
       style="fill:none;fill-rule:evenodd;stroke:#000000;stroke-width:1px;stroke-linecap:butt;stroke-linejoin:miter;stroke-opacity:1"
       d="m 867.38432,696.77568 -69.53217,-215.66757 0,0"
       id="path4162"
       inkscape:connector-curvature="0" />
  </g>
  <g
     inkscape:groupmode="layer"
     id="layer2"
     inkscape:label="Layer 2">
    <path
       inkscape:connector-curvature="0"
       id="path4176"
       style="font-style:normal;font-variant:normal;font-weight:bold;font-stretch:normal;font-size:medium;line-height:125%;font-family:sans-serif;-inkscape-font-specification:'sans-serif Bold';letter-spacing:0px;word-spacing:0px;fill:#000080;fill-opacity:1;stroke:none;stroke-width:1px;stroke-linecap:butt;stroke-linejoin:miter;stroke-opacity:1"
       d="m 298.41746,632.85551 q 0,52.29861 -39.57771,85.10409 -39.36607,32.56777 -107.09263,32.56777 -39.15442,0 -68.361506,-7.60708 -28.995436,-7.84478 -54.392899,-19.73083 l 0,-84.86637 8.889112,0 q 25.185817,22.58348 56.297708,34.70726 31.323535,12.12377 60.107325,12.12377 7.40759,0 19.47139,-1.42633 12.06379,-1.42633 19.68303,-4.75442 9.3124,-4.27898 15.23848,-10.69744 6.13772,-6.41847 6.13772,-19.01767 0,-11.64833 -8.88911,-19.96856 -8.67747,-8.55796 -25.60911,-13.07466 -17.77822,-4.75441 -37.6729,-8.79567 -19.68303,-4.27897 -37.03796,-10.69744 -39.789364,-14.50098 -57.355943,-39.22395 -17.354932,-24.9607 -17.354932,-61.80743 0,-49.44596 39.366067,-80.5874 39.577708,-31.37917 101.589848,-31.37917 31.11189,0 61.3772,6.89392 30.47696,6.65618 52.69973,16.87818 l 0,81.53828 -8.67746,0 q -19.04809,-17.11591 -46.77366,-28.52652 -27.51392,-11.64832 -56.29771,-11.64832 -10.15898,0 -20.31797,1.66405 -9.94733,1.42632 -19.25974,5.7053 -8.25418,3.56582 -14.18025,10.93516 -5.92608,7.13163 -5.92608,16.40274 0,14.02553 9.52405,21.63261 9.52405,7.36934 35.97974,13.55008 17.35494,4.04126 33.22834,7.8448 16.08507,3.80353 34.49823,10.45972 36.19138,13.31237 53.33467,36.3713 17.35493,22.8212 17.35493,59.43023 z" />
    <path
       inkscape:connector-curvature="0"
       id="path4178"
       style="font-style:normal;font-variant:normal;font-weight:bold;font-stretch:normal;font-size:medium;line-height:125%;font-family:sans-serif;-inkscape-font-specification:'sans-serif Bold';letter-spacing:0px;word-spacing:0px;fill:#000080;fill-opacity:1;stroke:none;stroke-width:1px;stroke-linecap:butt;stroke-linejoin:miter;stroke-opacity:1"
       d="m 614.40423,501.87129 q 0,23.77209 -7.40759,46.59329 -7.40759,22.58349 -21.16455,38.03535 -18.83645,20.91944 -42.11746,31.61688 -23.06936,10.69745 -57.56758,10.69745 l -50.58328,0 0,115.29465 -81.27188,0 0,-353.96646 133.75997,0 q 30.05367,0 50.58327,5.94303 20.74127,5.7053 36.61469,17.35362 19.04809,14.02554 28.99543,35.89586 10.15898,21.87033 10.15898,52.53633 z m -84.02327,2.13949 q 0,-14.97642 -7.19594,-25.67386 -7.19595,-10.93517 -16.72,-15.21415 -12.69874,-5.7053 -24.76253,-6.18074 -12.06379,-0.71316 -32.17011,-0.71316 l -13.96861,0 0,106.02353 23.28101,0 q 20.74125,0 34.07492,-2.85265 13.54532,-2.85266 22.64608,-11.41061 7.83088,-7.60706 11.21721,-18.06679 3.59797,-10.69744 3.59797,-25.91157 z" />
    <path
       inkscape:connector-curvature="0"
       id="path4182"
       style="font-style:normal;font-variant:normal;font-weight:bold;font-stretch:normal;font-size:medium;line-height:125%;font-family:sans-serif;-inkscape-font-specification:'sans-serif Bold';letter-spacing:0px;word-spacing:0px;fill:#000080;fill-opacity:1;stroke:none;stroke-width:1px;stroke-linecap:butt;stroke-linejoin:miter;stroke-opacity:1"
       d="m 1185.4238,498.54319 q 0,-13.31237 -4.8679,-22.8212 -4.8678,-9.50884 -16.7199,-14.97643 -8.2542,-3.80353 -19.2597,-4.51669 -11.0056,-0.95088 -25.6092,-0.95088 l -29.4187,0 0,95.32609 24.9742,0 q 19.4713,0 32.5934,-2.1395 13.122,-2.13949 22.0111,-9.74656 8.4659,-7.36934 12.2755,-16.16501 4.0212,-9.0334 4.0212,-24.00982 z m 126.7757,245.56572 -99.2618,0 -85.928,-129.79563 -37.4613,0 0,129.79563 -80.8486,0 0,-353.96646 136.2998,0 q 27.9372,0 48.0435,3.56582 20.1063,3.56581 37.6728,15.45186 17.7783,11.88604 28.149,30.90371 10.5822,18.77996 10.5822,47.30646 0,39.22396 -16.2967,63.94694 -16.085,24.72297 -46.1388,41.12571 l 105.1879,151.66596 z" />
    <path
       inkscape:connector-curvature="0"
       id="path4184"
       style="font-style:normal;font-variant:normal;font-weight:bold;font-stretch:normal;font-size:medium;line-height:125%;font-family:sans-serif;-inkscape-font-specification:'sans-serif Bold';letter-spacing:0px;word-spacing:0px;fill:#000080;fill-opacity:1;stroke:none;stroke-width:1px;stroke-linecap:butt;stroke-linejoin:miter;stroke-opacity:1"
       d="m 1490.6167,751.00281 q -35.1332,0 -64.9752,-11.64833 -29.6303,-11.64832 -51.0066,-34.70725 -21.3761,-23.05893 -33.2283,-57.52846 -11.6405,-34.46954 -11.6405,-79.63652 0,-42.0766 11.2172,-76.3084 11.2172,-34.23182 32.5934,-58.71708 20.5297,-23.53436 50.7949,-36.37129 30.477,-12.83694 66.4568,-12.83694 19.8946,0 35.768,2.61494 16.0851,2.3772 29.6304,6.41846 14.1803,4.5167 25.6092,10.222 11.6404,5.46758 20.3179,10.222 l 0,85.81725 -9.3124,0 q -5.9261,-5.7053 -15.0268,-13.55009 -8.8891,-7.8448 -20.318,-15.45186 -11.6405,-7.60707 -25.1858,-12.83693 -13.5453,-5.22986 -28.9955,-5.22986 -17.1432,0 -32.5934,6.18074 -15.4501,5.94303 -28.5721,19.96856 -12.4871,13.5501 -20.318,35.89586 -7.6192,22.34577 -7.6192,54.20037 0,33.28093 8.2542,55.62669 8.4658,22.34577 21.1645,35.1827 12.9104,13.07465 28.7838,18.77995 15.8734,5.46758 31.3235,5.46758 14.8152,0 29.2071,-4.99214 14.6035,-4.99213 26.879,-13.55009 10.3706,-6.89391 19.2597,-14.7387 8.8891,-7.84478 14.6035,-13.55009 l 8.4659,0 0,84.62865 q -11.8522,5.94302 -22.6461,11.17288 -10.7939,5.22987 -22.6461,9.0334 -15.4501,4.99214 -28.9954,7.60707 -13.5453,2.61493 -37.2496,2.61493 z" />
  </g>
</svg>
